# xmcd CD database file
#
# Track frame offsets:
#	150
#	18393
#	35445
#	54220
#	68010
#	84615
#	102578
#	117460
#	132985
#	151308
#	165598
#	180118
#	197188
#	220998
#	237015
#	249683
#	262800
#	278775
#	295150
#	308443
#
# Disc length: 4315 seconds
#
# Revision: 0
# Processed by: cddbd v1.5.2PL0 Copyright (c) Steve Scherf et al.
# Submitted via: CDex 1.70beta2
#
DISCID=0f10d914
DTITLE=ChartBreakers - ChartBreakers CGC-501
DYEAR=0000
DGENRE=Country
TTITLE0=Mark Chesnutt/Almost Goodbye
TTITLE1=Billy Ray Cyrus/Somebody New
TTITLE2=Garth Brooks/Learning To Live Again
TTITLE3=Brooks and Dunn/Hard Workin' Man
TTITLE4=Brother Phelps/Let Go
TTITLE5=Mary-Chapin Carpenter/Hard Way
TTITLE6=Diamond Rio/Oh Me, Oh My, Sweet Baby
TTITLE7=Mary-Chapin Carpenter/Down At The Twist And Shout
TTITLE8=Lionel Cartwright/Leap Of Faith
TTITLE9=Billy Dean/Billy The Kid
TTITLE10=Radney Foster/Just Call Me Lonesome
TTITLE11=Vince Gill/Don't Let Our Love Start Slippin' Away
TTITLE12=Alabama/Dixieland Delight
TTITLE13=Clint Black/Nobody's Home
TTITLE14=Forrester Sisters/Mama's Never Seen Those Eyes
TTITLE15=Vince Gill/Liza Jane
TTITLE16=Highway 101/Bed You Made For Me
TTITLE17=Alabama/Close Enough To Perfect
TTITLE18=Baillie and The Boys/Long Shot
TTITLE19=Mary-Chapin Carpenter/Not Too Much To Ask
EXTD=YEAR: 0000
EXTT0=
EXTT1=
EXTT2=
EXTT3=
EXTT4=
EXTT5=
EXTT6=
EXTT7=
EXTT8=
EXTT9=
EXTT10=
EXTT11=
EXTT12=
EXTT13=
EXTT14=
EXTT15=
EXTT16=
EXTT17=
EXTT18=
EXTT19=
PLAYORDER=
